<svg xmlns="http://www.w3.org/2000/svg" viewBox="0 0 128 128"><path d="M97,114.9q-2.1-3.23-2.1-9.92V4.52A77,77,0,0,1,84.75,6.09q-5.53.53-11.65.52c-3,0-6.07-.15-9.26-.45V9.3c3.69,0,6.2,1.07,7.55,3.2s2,5.45,2,9.93V47.75a15.22,15.22,0,0,0-5-3.45,28.94,28.94,0,0,0-11.57-2.17,32.72,32.72,0,0,0-17.08,4.48A30.62,30.62,0,0,0,27.87,60q-4.34,8.88-4.32,22.46,0,14.32,3.88,23.36t10.83,13.36A29.12,29.12,0,0,0,54,123.48q8.07,0,13.07-4.1a21.62,21.62,0,0,0,6.34-9.28v12.78a58.7,58.7,0,0,1,10.07-1.63c3.63-.31,7.54-.45,11.72-.45,3.08,0,6.16.14,9.26.45V118.1C100.86,118.1,98.37,117,97,114.9ZM69.22,113a12.58,12.58,0,0,1-9.1,4,10,10,0,0,1-7.39-3.29Q49.51,110.5,47.8,103T46.08,82.74q-.15-18.51,4.33-27.4c3-5.92,7-8.88,12.1-8.88A15.16,15.16,0,0,1,69.29,48a11.08,11.08,0,0,1,4.11,3.5V103.9A15,15,0,0,1,69.22,113Z" fill="#111827"/></svg>