<svg xmlns="http://www.w3.org/2000/svg" viewBox="0 0 305.71 92.96"><path d="M22.41,29.76a25.85,25.85,0,0,1,8.17,1.16,20.26,20.26,0,0,1,5.05,2.28c2.52,1.71,4.08.59,4.67-3.33h2.33Q42.4,33,42.3,37.48t-.11,11.94H39.86a35.81,35.81,0,0,0-2.12-8.11,16.14,16.14,0,0,0-4.5-6.55,11.16,11.16,0,0,0-7.61-2.56A8.26,8.26,0,0,0,20.19,34,6.48,6.48,0,0,0,18,39.31a9,9,0,0,0,2,5.83,25.53,25.53,0,0,0,5.16,4.78c2.11,1.52,4.32,3.13,6.61,4.84q3.68,2.77,6.67,5.5a23.1,23.1,0,0,1,4.78,5.94A15.72,15.72,0,0,1,45,73.87a13.85,13.85,0,0,1-2.89,8.72,18.65,18.65,0,0,1-7.61,5.72,26.56,26.56,0,0,1-10.5,2A24.33,24.33,0,0,1,18,89.65,20.57,20.57,0,0,1,13.52,88L10.8,86.7c-.85-.41-1.65-.76-2.39-1a1.67,1.67,0,0,0-1.94.77,8,8,0,0,0-1.28,3.11H2.85c.15-2.37.26-5.25.34-8.66s.11-7.93.11-13.56H5.63A42.55,42.55,0,0,0,8.08,77.92a17.49,17.49,0,0,0,4.83,7.23,11.47,11.47,0,0,0,7.72,2.61A9.07,9.07,0,0,0,24.3,87a6.68,6.68,0,0,0,2.94-2.56,8.11,8.11,0,0,0,1.17-4.55,11.11,11.11,0,0,0-3.17-8.11,79.4,79.4,0,0,0-8-7q-3.56-2.9-6.72-5.73A26,26,0,0,1,5.3,52.81a14.83,14.83,0,0,1-2-7.72A13.45,13.45,0,0,1,6,36.64,16.23,16.23,0,0,1,13,31.48,25.47,25.47,0,0,1,22.41,29.76Zm50.78.33V78.42c0,3.11.53,5.23,1.61,6.34s2.91,1.66,5.5,1.66v2.34c-1.33-.08-3.41-.17-6.22-.28s-5.67-.17-8.56-.17-5.82.06-8.78.17-5.18.2-6.66.28V86.42q3.89,0,5.5-1.66c1.07-1.11,1.61-3.23,1.61-6.34v-35q0-5-1.5-7.39t-5.61-2.39V31.31q3.56.33,6.88.33c3.12,0,6-.12,8.73-.38A60.28,60.28,0,0,0,73.19,30.09ZM64.52,2.64a11.16,11.16,0,0,1,7.39,2.28,7.76,7.76,0,0,1,2.72,6.28,7.76,7.76,0,0,1-2.72,6.28,11.16,11.16,0,0,1-7.39,2.28,11.16,11.16,0,0,1-7.39-2.28,7.76,7.76,0,0,1-2.72-6.28,7.76,7.76,0,0,1,2.72-6.28A11.16,11.16,0,0,1,64.52,2.64Zm47.56,27.12a31.93,31.93,0,0,1,14.22,3,21.18,21.18,0,0,1,9.55,9.66q3.45,6.67,3.45,17.67T135.85,77.7a21.2,21.2,0,0,1-9.55,9.61,31.93,31.93,0,0,1-14.22,3,31.74,31.74,0,0,1-14.06-3,21.49,21.49,0,0,1-9.67-9.61q-3.5-6.61-3.5-17.61t3.5-17.67A21.46,21.46,0,0,1,98,32.76,31.74,31.74,0,0,1,112.08,29.76Zm0,2.22q-4.45,0-7.45,6.61t-3,21.5q0,14.89,3,21.44t7.45,6.56q4.55,0,7.5-6.56t2.94-21.44q0-14.9-2.94-21.5T112.08,32Zm73.77-2.22a20.89,20.89,0,0,1,7.61,1.16,11.34,11.34,0,0,1,4.62,3.17,13.47,13.47,0,0,1,2.61,5.44,39,39,0,0,1,.83,9V78.42c0,3.11.54,5.23,1.61,6.34s2.91,1.66,5.5,1.66v2.34q-2.12-.12-6.33-.28T194,88.31q-4.23,0-8.28.17c-2.71.11-4.76.2-6.17.28V86.42q3.33,0,4.67-1.66c.89-1.11,1.33-3.23,1.33-6.34V43.87A18.72,18.72,0,0,0,185,39a6,6,0,0,0-2-3.22,6.76,6.76,0,0,0-4.33-1.17,9.73,9.73,0,0,0-5.5,1.67,11.87,11.87,0,0,0-4,4.61,14.38,14.38,0,0,0-1.5,6.61V78.42c0,3.11.46,5.23,1.39,6.34s2.46,1.66,4.61,1.66v2.34c-1.33-.08-3.28-.17-5.83-.28s-5.21-.17-8-.17-5.7.06-8.66.17-5.19.2-6.67.28V86.42q3.89,0,5.5-1.66c1.07-1.11,1.61-3.23,1.61-6.34v-35q0-5-1.5-7.39t-5.61-2.39V31.31q3.55.33,6.89.33c3.11,0,6-.12,8.72-.38a60.28,60.28,0,0,0,7.5-1.17v10a16.55,16.55,0,0,1,7.56-8A23.89,23.89,0,0,1,185.85,29.76Zm47.78-16.67V31.31h13.11v2.22H233.63V78.42c0,2.23.41,3.8,1.22,4.73a4.66,4.66,0,0,0,3.67,1.38,6.65,6.65,0,0,0,4-1.5,12.42,12.42,0,0,0,3.56-5.16l1.89,1a19.71,19.71,0,0,1-5.39,8.22q-3.62,3.22-9.84,3.22a20,20,0,0,1-6.44-.94,11.65,11.65,0,0,1-7.89-8.89,46,46,0,0,1-.78-9.39V33.53H208.3V31.31h9.33V16.64a41.39,41.39,0,0,0,8.61-.83A26.64,26.64,0,0,0,233.63,13.09Zm30.22,76.44a16.8,16.8,0,0,1-8.33-1.88,11.73,11.73,0,0,1-4.89-5.06,15.49,15.49,0,0,1-1.55-6.94,13,13,0,0,1,2.16-7.78A16.84,16.84,0,0,1,256.85,63a40.89,40.89,0,0,1,7.28-3.11c2.56-.82,5-1.61,7.34-2.39a20,20,0,0,0,5.66-2.78,5,5,0,0,0,2.17-4.17V41.87a13.38,13.38,0,0,0-.95-5.17,7.35,7.35,0,0,0-2.88-3.5A9.45,9.45,0,0,0,270.41,32a16.68,16.68,0,0,0-4.45.61,8.12,8.12,0,0,0-3.66,2A10.29,10.29,0,0,1,267.13,38a8.36,8.36,0,0,1,1.72,5.17,7.47,7.47,0,0,1-2.61,6,9.2,9.2,0,0,1-6.16,2.22,7.38,7.38,0,0,1-6.06-2.5A9.2,9.2,0,0,1,252,42.87a8.53,8.53,0,0,1,1.62-5.34,17.92,17.92,0,0,1,4.5-4,27.17,27.17,0,0,1,7.5-2.77,42.48,42.48,0,0,1,9.5-1,37.33,37.33,0,0,1,9.22,1,14.76,14.76,0,0,1,6.89,3.83,12.26,12.26,0,0,1,3.33,6.28,47,47,0,0,1,.78,9.39V80.53a9.17,9.17,0,0,0,.55,3.84,2,2,0,0,0,1.89,1,3.8,3.8,0,0,0,1.95-.55c.63-.37,1.31-.82,2.05-1.34l1.11,1.89a16.24,16.24,0,0,1-5.38,3.06,21,21,0,0,1-6.84,1,15.31,15.31,0,0,1-6.55-1.16,7.38,7.38,0,0,1-3.5-3.17,9.78,9.78,0,0,1-1.06-4.67,20.93,20.93,0,0,1-6.44,6.62A17,17,0,0,1,263.85,89.53Zm7.89-7.11a8,8,0,0,0,4.06-1,11.27,11.27,0,0,0,3.5-3.5V55.09a10.74,10.74,0,0,1-2.78,3q-1.77,1.33-3.78,2.72a38.31,38.31,0,0,0-3.83,3.06A12.43,12.43,0,0,0,266,68a14.17,14.17,0,0,0-1.11,5.89q0,4.34,1.89,6.44A6.38,6.38,0,0,0,271.74,82.42Z" fill="#111827"/></svg>