<svg width="24" height="24" fill="none" stroke="currentColor" stroke-linecap="round" stroke-linejoin="round" stroke-width="2" class="icon icon-tabler icons-tabler-outline icon-tabler-brand-php" viewBox="0 0 24 24"><path stroke="none" d="M0 0h24v24H0z"/><path d="M2 12a10 9 0 1 0 20 0 10 9 0 1 0-20 0"/><path d="m5.5 15 .395-1.974L6.5 10h1.32a1 1 0 0 1 .986 1.164l-.167 1a1 1 0 0 1-.986.836H6M15.5 15l.395-1.974L16.5 10h1.32a1 1 0 0 1 .986 1.164l-.167 1a1 1 0 0 1-.986.836H16M12 7.5 11 13M11.6 10H14l-.5 3"/></svg>