<!--
  Tabler Icons 3.4.0 by tabler - https://tabler.io
  License - https://github.com/tabler/tabler-icons/blob/master/LICENSE
-->

<svg xmlns="http://www.w3.org/2000/svg" xmlns:xlink="http://www.w3.org/1999/xlink" aria-hidden="true">
 <symbol id="behance" class="icon icon-tabler" width="24" height="24" fill="none" stroke="currentColor" stroke-linecap="round" stroke-linejoin="round" stroke-width="2" ><path stroke="none" d="M0 0h24v24H0z"/><path d="M3 18V6h4.5a3 3 0 0 1 0 6 3 3 0 0 1 0 6zM3 12h4.5M14 13h7a3.5 3.5 0 0 0-7 0v2a3.5 3.5 0 0 0 6.64 1M16 6h3"/></symbol>
 <symbol id="bilibili" class="icon icon-tabler" width="24" height="24" fill="none" stroke="currentColor" stroke-linecap="round" stroke-linejoin="round" stroke-width="2" ><path stroke="none" d="M0 0h24v24H0z"/><path d="M3 10a4 4 0 0 1 4-4h10a4 4 0 0 1 4 4v6a4 4 0 0 1-4 4H7a4 4 0 0 1-4-4zM8 3l2 3M16 3l-2 3M9 13v-2M15 11v2"/></symbol>
 <symbol id="bitbucket" class="icon icon-tabler" width="24" height="24" fill="none" stroke="currentColor" stroke-linecap="round" stroke-linejoin="round" stroke-width="2" ><path stroke="none" d="M0 0h24v24H0z"/><path d="M3.648 4a.64.64 0 0 0-.64.744l3.14 14.528c.07.417.43.724.852.728h10a.644.644 0 0 0 .642-.539l3.35-14.71a.64.64 0 0 0-.64-.744z"/><path d="M14 15h-4L9 9h6z"/></symbol>
 <symbol id="blogger" class="icon icon-tabler" width="24" height="24" fill="none" stroke="currentColor" stroke-linecap="round" stroke-linejoin="round" stroke-width="2" ><path stroke="none" d="M0 0h24v24H0z"/><path d="M8 21h8a5 5 0 0 0 5-5v-3a3 3 0 0 0-3-3h-1V8a5 5 0 0 0-5-5H8a5 5 0 0 0-5 5v8a5 5 0 0 0 5 5"/><path d="M7 8.5A1.5 1.5 0 0 1 8.5 7h3A1.5 1.5 0 0 1 13 8.5v0a1.5 1.5 0 0 1-1.5 1.5h-3A1.5 1.5 0 0 1 7 8.5M7 15.5A1.5 1.5 0 0 1 8.5 14h7a1.5 1.5 0 0 1 1.5 1.5v0a1.5 1.5 0 0 1-1.5 1.5h-7A1.5 1.5 0 0 1 7 15.5"/></symbol>
 <symbol id="deezer" class="icon icon-tabler" width="24" height="24" fill="none" stroke="currentColor" stroke-linecap="round" stroke-linejoin="round" stroke-width="2" ><path stroke="none" d="M0 0h24v24H0z"/><path d="M3 16.5h2v.5H3zM8 16.5h2.5v.5H8zM16 17h-2.5v-.5H16zM21.5 17H19v-.5h2.5zM21.5 13H19v.5h2.5zM21.5 9.5H19v.5h2.5zM21.5 6H19v.5h2.5zM16 13h-2.5v.5H16zM8 13.5h2.5V13H8zM8 9.5h2.5v.5H8z"/></symbol>
 <symbol id="deviantart" class="icon icon-tabler" width="24" height="24" fill="none" stroke="currentColor" stroke-linecap="round" stroke-linejoin="round" stroke-width="2" ><path stroke="none" d="M0 0h24v24H0z"/><path d="M18 3v4l-3.857 6H18v4h-6.429L9 21H6v-4l3.857-6H6V7h6.429L15 3z"/></symbol>
 <symbol id="discord" class="icon icon-tabler" width="24" height="24" fill="none" stroke="currentColor" stroke-linecap="round" stroke-linejoin="round" stroke-width="2" ><path stroke="none" d="M0 0h24v24H0z"/><path d="M8 12a1 1 0 1 0 2 0 1 1 0 0 0-2 0M14 12a1 1 0 1 0 2 0 1 1 0 0 0-2 0"/><path d="M15.5 17c0 1 1.5 3 2 3 1.5 0 2.833-1.667 3.5-3 .667-1.667.5-5.833-1.5-11.5-1.457-1.015-3-1.34-4.5-1.5l-.972 1.923a11.9 11.9 0 0 0-4.053 0L9 4c-1.5.16-3.043.485-4.5 1.5-2 5.667-2.167 9.833-1.5 11.5.667 1.333 2 3 3.5 3 .5 0 2-2 2-3"/><path d="M7 16.5c3.5 1 6.5 1 10 0"/></symbol>
 <symbol id="facebook" class="icon icon-tabler" width="24" height="24" fill="none" stroke="currentColor" stroke-linecap="round" stroke-linejoin="round" stroke-width="2" ><path stroke="none" d="M0 0h24v24H0z"/><path d="M7 10v4h3v7h4v-7h3l1-4h-4V8a1 1 0 0 1 1-1h3V3h-3a5 5 0 0 0-5 5v2z"/></symbol>
 <symbol id="figma" class="icon icon-tabler" width="24" height="24" fill="none" stroke="currentColor" stroke-linecap="round" stroke-linejoin="round" stroke-width="2" ><path stroke="none" d="M0 0h24v24H0z"/><path d="M12 12a3 3 0 1 0 6 0 3 3 0 1 0-6 0"/><path d="M6 6a3 3 0 0 1 3-3h6a3 3 0 0 1 3 3v0a3 3 0 0 1-3 3H9a3 3 0 0 1-3-3"/><path d="M9 9a3 3 0 0 0 0 6h3m-3 0a3 3 0 1 0 3 3V3"/></symbol>
 <symbol id="git" class="icon icon-tabler" width="24" height="24" fill="none" stroke="currentColor" stroke-linecap="round" stroke-linejoin="round" stroke-width="2" ><path stroke="none" d="M0 0h24v24H0z"/><path d="M15 12a1 1 0 1 0 2 0 1 1 0 1 0-2 0M11 8a1 1 0 1 0 2 0 1 1 0 1 0-2 0M11 16a1 1 0 1 0 2 0 1 1 0 1 0-2 0M12 15V9M15 11l-2-2M11 7 9.1 5.1"/><path d="m13.446 2.6 7.955 7.954a2.045 2.045 0 0 1 0 2.892l-7.955 7.955a2.045 2.045 0 0 1-2.892 0l-7.955-7.955a2.045 2.045 0 0 1 0-2.892l7.955-7.955a2.045 2.045 0 0 1 2.892 0z"/></symbol>
 <symbol id="github" class="icon icon-tabler" width="24" height="24" fill="none" stroke="currentColor" stroke-linecap="round" stroke-linejoin="round" stroke-width="2" ><path stroke="none" d="M0 0h24v24H0z"/><path d="M9 19c-4.3 1.4-4.3-2.5-6-3m12 5v-3.5c0-1 .1-1.4-.5-2 2.8-.3 5.5-1.4 5.5-6a4.6 4.6 0 0 0-1.3-3.2 4.2 4.2 0 0 0-.1-3.2s-1.1-.3-3.5 1.3a12.3 12.3 0 0 0-6.2 0C6.5 2.8 5.4 3.1 5.4 3.1a4.2 4.2 0 0 0-.1 3.2A4.6 4.6 0 0 0 4 9.5c0 4.6 2.7 5.7 5.5 6-.6.6-.6 1.2-.5 2V21"/></symbol>
 <symbol id="gitlab" class="icon icon-tabler" width="24" height="24" fill="none" stroke="currentColor" stroke-linecap="round" stroke-linejoin="round" stroke-width="2" ><path stroke="none" d="M0 0h24v24H0z"/><path d="m21 14-9 7-9-7L6 3l3 7h6l3-7z"/></symbol>
 <symbol id="instagram" class="icon icon-tabler" width="24" height="24" fill="none" stroke="currentColor" stroke-linecap="round" stroke-linejoin="round" stroke-width="2" ><path stroke="none" d="M0 0h24v24H0z"/><path d="M4 8a4 4 0 0 1 4-4h8a4 4 0 0 1 4 4v8a4 4 0 0 1-4 4H8a4 4 0 0 1-4-4z"/><path d="M9 12a3 3 0 1 0 6 0 3 3 0 1 0-6 0M16.5 7.5v.01"/></symbol>
 <symbol id="linkedin" class="icon icon-tabler" width="24" height="24" fill="none" stroke="currentColor" stroke-linecap="round" stroke-linejoin="round" stroke-width="2" ><path stroke="none" d="M0 0h24v24H0z"/><path d="M4 6a2 2 0 0 1 2-2h12a2 2 0 0 1 2 2v12a2 2 0 0 1-2 2H6a2 2 0 0 1-2-2zM8 11v5M8 8v.01M12 16v-5"/><path d="M16 16v-3a2 2 0 0 0-4 0"/></symbol>
 <symbol id="mastodon" class="icon icon-tabler" width="24" height="24" fill="none" stroke="currentColor" stroke-linecap="round" stroke-linejoin="round" stroke-width="2" ><path stroke="none" d="M0 0h24v24H0z"/><path d="M18.648 15.254C16.832 17.017 12 16.88 12 16.88a18.3 18.3 0 0 1-3.288-.256q1.69 2.977 8.982 2.475c-1.945 2.013-13.598 5.257-13.668-7.636L4 10.309c0-3.036.023-4.115 1.352-5.633C7.023 2.766 12 3.01 12 3.01s4.977-.243 6.648 1.667C19.977 6.195 20 7.274 20 10.31s-.456 4.074-1.352 4.944"/><path d="M12 11.204V8.278C12 7.02 11.105 6 10 6S8 7.02 8 8.278V13m4-4.722C12 7.02 12.895 6 14 6s2 1.02 2 2.278V13"/></symbol>
 <symbol id="messenger" class="icon icon-tabler" width="24" height="24" fill="none" stroke="currentColor" stroke-linecap="round" stroke-linejoin="round" stroke-width="2" ><path stroke="none" d="M0 0h24v24H0z"/><path d="m3 20 1.3-3.9A9 8 0 1 1 7.7 19z"/><path d="m8 13 3-2 2 2 3-2"/></symbol>
 <symbol id="paypal" class="icon icon-tabler" width="24" height="24" fill="none" stroke="currentColor" stroke-linecap="round" stroke-linejoin="round" stroke-width="2" ><path stroke="none" d="M0 0h24v24H0z"/><path d="M10 13h2.5c2.5 0 5-2.5 5-5 0-3-1.9-5-5-5H7c-.5 0-1 .5-1 1L4 18c0 .5.5 1 1 1h2.8L9 14c.1-.6.4-1 1-1m7.5-5.8C19.2 8.2 20 10 20 12c0 2.5-2.5 4.5-5 4.5h-2.6l-.6 3.6a1 1 0 0 1-1 .8H8.1a.5.5 0 0 1-.5-.6l.2-1.4"/></symbol>
 <symbol id="pinterest" class="icon icon-tabler" width="24" height="24" fill="none" stroke="currentColor" stroke-linecap="round" stroke-linejoin="round" stroke-width="2" ><path stroke="none" d="M0 0h24v24H0z"/><path d="m8 20 4-9M10.7 14c.437 1.263 1.43 2 2.55 2 2.071 0 3.75-1.554 3.75-4a5 5 0 1 0-9.7 1.7"/><path d="M3 12a9 9 0 1 0 18 0 9 9 0 1 0-18 0"/></symbol>
 <symbol id="skype" class="icon icon-tabler" width="24" height="24" fill="none" stroke="currentColor" stroke-linecap="round" stroke-linejoin="round" stroke-width="2" ><path stroke="none" d="M0 0h24v24H0z"/><path d="M12 3a9 9 0 0 1 8.603 11.65 4.5 4.5 0 0 1-5.953 5.953A9 9 0 0 1 3.397 9.35 4.5 4.5 0 0 1 9.35 3.396 9 9 0 0 1 12 3"/><path d="M8 14.5c.5 2 2.358 2.5 4 2.5 2.905 0 4-1.187 4-2.5 0-1.503-1.927-2.5-4-2.5s-4-1-4-2.5C8 8.187 9.095 7 12 7c1.642 0 3.5.5 4 2.5"/></symbol>
 <symbol id="slack" class="icon icon-tabler" width="24" height="24" fill="none" stroke="currentColor" stroke-linecap="round" stroke-linejoin="round" stroke-width="2" ><path stroke="none" d="M0 0h24v24H0z"/><path d="M12 12V6a2 2 0 0 1 4 0v6m0-2a2 2 0 1 1 2 2h-6M12 12h6a2 2 0 0 1 0 4h-6m2 0a2 2 0 1 1-2 2v-6M12 12v6a2 2 0 0 1-4 0v-6m0 2a2 2 0 1 1-2-2h6M12 12H6a2 2 0 0 1 0-4h6m-2 0a2 2 0 1 1 2-2v6"/></symbol>
 <symbol id="snapchat" class="icon icon-tabler" width="24" height="24" fill="none" stroke="currentColor" stroke-linecap="round" stroke-linejoin="round" stroke-width="2" ><path stroke="none" d="M0 0h24v24H0z"/><path d="M16.882 7.842a4.882 4.882 0 0 0-9.764 0c0 4.273-.213 6.409-4.118 8.118 2 .882 2 .882 3 3 3 0 4 2 6 2s3-2 6-2c1-2.118 1-2.118 3-3-3.906-1.709-4.118-3.845-4.118-8.118M3 15.961c4-2.118 4-4.118 1-7.118m17 7.118c-4-2.118-4-4.118-1-7.118"/></symbol>
 <symbol id="soundcloud" class="icon icon-tabler" width="24" height="24" fill="none" stroke="currentColor" stroke-linecap="round" stroke-linejoin="round" stroke-width="2" ><path stroke="none" d="M0 0h24v24H0z"/><path d="M17 11h1c1.38 0 3 1.274 3 3 0 1.657-1.5 3-3 3h-6V7c3 0 4.5 1.5 5 4M9 8v9M6 17v-7M3 16v-2"/></symbol>
 <symbol id="spotify" class="icon icon-tabler" width="24" height="24" fill="none" stroke="currentColor" stroke-linecap="round" stroke-linejoin="round" stroke-width="2" ><path stroke="none" d="M0 0h24v24H0z"/><path d="M3 12a9 9 0 1 0 18 0 9 9 0 1 0-18 0"/><path d="M8 11.973c2.5-1.473 5.5-.973 7.5.527M9 15c1.5-1 4-1 5 .5M7 9c2-1 6-2 10 .5"/></symbol>
 <symbol id="stackoverflow" class="icon icon-tabler" width="24" height="24" fill="none" stroke="currentColor" stroke-linecap="round" stroke-linejoin="round" stroke-width="2" ><path stroke="none" d="M0 0h24v24H0z"/><path d="M4 17v1a2 2 0 0 0 2 2h12a2 2 0 0 0 2-2v-1M8 16h8M8.322 12.582l7.956.836M8.787 9.168l7.826 1.664M10.096 5.764l7.608 2.472"/></symbol>
 <symbol id="steam" class="icon icon-tabler" width="24" height="24" fill="none" stroke="currentColor" stroke-linecap="round" stroke-linejoin="round" stroke-width="2" ><path stroke="none" d="M0 0h24v24H0z"/><path d="M16.5 5a4.5 4.5 0 1 1-.653 8.953L11.5 16.962V17a3 3 0 0 1-2.824 3H8.5a3 3 0 0 1-2.94-2.402L3 16.5V13l3.51 1.755a2.99 2.99 0 0 1 2.834-.635l2.727-3.818A4.5 4.5 0 0 1 16.5 5"/><circle cx="16.5" cy="9.5" r="1" fill="currentColor"/></symbol>
 <symbol id="teams" class="icon icon-tabler" width="24" height="24" fill="none" stroke="currentColor" stroke-linecap="round" stroke-linejoin="round" stroke-width="2" ><path stroke="none" d="M0 0h24v24H0z"/><path d="M3 7h10v10H3zM6 10h4M8 10v4"/><path d="M8.104 17c.47 2.274 2.483 4 4.896 4a5 5 0 0 0 5-5V9h-5M18 18a4 4 0 0 0 4-4V9h-4"/><path d="M13.003 8.83a3 3 0 1 0-1.833-1.833"/><path d="M15.83 8.36a2.5 2.5 0 1 0 .594-4.117"/></symbol>
 <symbol id="telegram" class="icon icon-tabler" width="24" height="24" fill="none" stroke="currentColor" stroke-linecap="round" stroke-linejoin="round" stroke-width="2" ><path stroke="none" d="M0 0h24v24H0z"/><path d="m15 10-4 4 6 6 4-16-18 7 4 2 2 6 3-4"/></symbol>
 <symbol id="threads" class="icon icon-tabler" width="24" height="24" fill="none" stroke="currentColor" stroke-linecap="round" stroke-linejoin="round" stroke-width="2" ><path stroke="none" d="M0 0h24v24H0z"/><path d="M19 7.5Q17 3 12 3c-5 0-8 2.5-8 9s3.5 9 8 9 7-3 7-5-1-5-7-5c-2.5 0-3 1.25-3 2.5C9 15 10 16 11.5 16c2.5 0 3.5-1.5 3.5-5s-2-4-3-4-1.833.333-2.5 1"/></symbol>
 <symbol id="tiktok" class="icon icon-tabler" width="24" height="24" fill="none" stroke="currentColor" stroke-linecap="round" stroke-linejoin="round" stroke-width="2" ><path stroke="none" d="M0 0h24v24H0z"/><path d="M21 7.917v4.034A9.95 9.95 0 0 1 16 10v4.5a6.5 6.5 0 1 1-8-6.326V12.5a2.5 2.5 0 1 0 4 2V3h4.083A6.005 6.005 0 0 0 21 7.917"/></symbol>
 <symbol id="tumblr" class="icon icon-tabler" width="24" height="24" fill="none" stroke="currentColor" stroke-linecap="round" stroke-linejoin="round" stroke-width="2" ><path stroke="none" d="M0 0h24v24H0z"/><path d="M14 21h4v-4h-4v-6h4V7h-4V3h-4v1a3 3 0 0 1-3 3H6v4h4v6a4 4 0 0 0 4 4"/></symbol>
 <symbol id="twitch" class="icon icon-tabler" width="24" height="24" fill="none" stroke="currentColor" stroke-linecap="round" stroke-linejoin="round" stroke-width="2" ><path stroke="none" d="M0 0h24v24H0z"/><path d="M4 5v11a1 1 0 0 0 1 1h2v4l4-4h5.584c.266 0 .52-.105.707-.293l2.415-2.414c.187-.188.293-.442.293-.708V5a1 1 0 0 0-1-1h-14a1 1 0 0 0-1 1zM16 8v4M12 8v4"/></symbol>
 <symbol id="twitter" class="icon icon-tabler" width="24" height="24" fill="none" stroke="currentColor" stroke-linecap="round" stroke-linejoin="round" stroke-width="2" ><path stroke="none" d="M0 0h24v24H0z"/><path d="M22 4.01c-1 .49-1.98.689-3 .99-1.121-1.265-2.783-1.335-4.38-.737S11.977 6.323 12 8v1c-3.245.083-6.135-1.395-8-4 0 0-4.182 7.433 4 11-1.872 1.247-3.739 2.088-6 2 3.308 1.803 6.913 2.423 10.034 1.517 3.58-1.04 6.522-3.723 7.651-7.742a13.8 13.8 0 0 0 .497-3.753c0-.249 1.51-2.772 1.818-4.013z"/></symbol>
 <symbol id="vimeo" class="icon icon-tabler" width="24" height="24" fill="none" stroke="currentColor" stroke-linecap="round" stroke-linejoin="round" stroke-width="2" ><path stroke="none" d="M0 0h24v24H0z"/><path d="m3 8.5 1 1S5.5 8.398 6 9c.509.609 1.863 7.65 2.5 9 .556 1.184 1.978 2.89 4 1.5C14.5 18 20 14 21 8c.444-2.661-1-4-2.5-4-2 0-4.047 1.202-4.5 4 2.05-1.254 2.551 1 1.5 3s-2 3-2.5 3c-.49 0-.924-1.165-1.5-3.5-.59-2.42-.5-6.5-3-6.5S3 8.5 3 8.5"/></symbol>
 <symbol id="vk" class="icon icon-tabler" width="24" height="24" fill="none" stroke="currentColor" stroke-linecap="round" stroke-linejoin="round" stroke-width="2" ><path stroke="none" d="M0 0h24v24H0z"/><path d="M14 19h-4a8 8 0 0 1-8-8V6h4v5a4 4 0 0 0 4 4h0V6h4v4.5h.03A4.53 4.53 0 0 0 18 6.004h4l-.342 1.711A6.86 6.86 0 0 1 18 12.504h0a5.34 5.34 0 0 1 3.566 4.111L22 19.004h0-4a4.53 4.53 0 0 0-3.97-4.496v4.5z"/></symbol>
 <symbol id="whatsapp" class="icon icon-tabler" width="24" height="24" fill="none" stroke="currentColor" stroke-linecap="round" stroke-linejoin="round" stroke-width="2" ><path stroke="none" d="M0 0h24v24H0z"/><path d="m3 21 1.65-3.8a9 9 0 1 1 3.4 2.9z"/><path d="M9 10a.5.5 0 0 0 1 0V9a.5.5 0 0 0-1 0za5 5 0 0 0 5 5h1a.5.5 0 0 0 0-1h-1a.5.5 0 0 0 0 1"/></symbol>
 <symbol id="x" class="icon icon-tabler" width="24" height="24" fill="none" stroke="currentColor" stroke-linecap="round" stroke-linejoin="round" stroke-width="2" ><path stroke="none" d="M0 0h24v24H0z"/><path d="m4 4 11.733 16H20L8.267 4zM4 20l6.768-6.768m2.46-2.46L20 4"/></symbol>
 <symbol id="youtube" class="icon icon-tabler" width="24" height="24" fill="none" stroke="currentColor" stroke-linecap="round" stroke-linejoin="round" stroke-width="2" ><path stroke="none" d="M0 0h24v24H0z"/><path d="M2 8a4 4 0 0 1 4-4h12a4 4 0 0 1 4 4v8a4 4 0 0 1-4 4H6a4 4 0 0 1-4-4z"/><path d="m10 9 5 3-5 3z"/></symbol>
</svg>